<svg fill="none" height="24" viewBox="0 0 32 24" width="32" xmlns="http://www.w3.org/2000/svg">
    <g fill="#00adb5">
        <path
            d="m.666656 15.8598c0 2.0009 1.034734 3.0339 3.039544 3.0339h.4527v-6.5705c0-2.75473 1.64449-4.40201 4.39763-4.40201h1.28418c.22169 0 .27719-.02792.43419-.18613l.6745-.63286c.7668-.73522 1.589-1.07957 2.6515-1.07957h3.3629c1.0809 0 1.9309.34435 2.6792 1.09819l.4527.44672c.0647.06514.1386.1489.194.17682v-1.37738c0-1.99163-1.044-3.03397-3.0395-3.03397h-13.544c-2.00481 0-3.039544 1.04234-3.039544 3.03397zm7.889874 7.4732h13.45157c2.0048 0 3.0488-1.0423 3.0488-3.034v-7.9758c0-2.0009-1.044-3.03393-3.0488-3.03393h-1.2749c-.6929 0-.9239-.08376-1.3304-.50256l-.7021-.698c-.4989-.49325-.9886-.698-1.7369-.698h-3.3629c-.7391 0-1.2195.21405-1.7277.698l-.7391.698c-.4157.39088-.6005.50256-1.29339.50256h-1.28418c-2.0048 0-3.03954 1.03303-3.03954 3.03393v7.9758c0 1.9917 1.03474 3.034 3.03954 3.034zm6.68887-2.9502c-2.4483 0-4.4254-1.9916-4.4254-4.4672 0-2.457 1.9771-4.4579 4.4254-4.4579 2.439 0 4.4253 2.0009 4.4253 4.4579 0 2.4756-1.9863 4.4672-4.4253 4.4672zm5.6633-6.5705c-.5913 0-1.0624-.4839-1.0624-1.0703 0-.5956.4711-1.0795 1.0624-1.0795.5821 0 1.0717.4839 1.0717 1.0795 0 .5864-.4896 1.0703-1.0717 1.0703zm-5.6633 4.9325c1.5428 0 2.7993-1.2657 2.7993-2.8292 0-1.5542-1.2565-2.8199-2.7993-2.8199-1.5429 0-2.7994 1.2657-2.7994 2.8199 0 1.5635 1.2565 2.8292 2.7994 2.8292z" />
        <path
            d="m25.1647 8.66634c2.2837 0 4.1686-1.88588 4.1686-4.16667 0-2.28078-1.889-4.166662-4.1727-4.166662-2.2797 0-4.1606 1.885882-4.1606 4.166662 0 2.28079 1.885 4.16667 4.1647 4.16667zm0-.83011c-1.8488 0-3.3269-1.48694-3.3269-3.33656 0-1.84961 1.4781-3.33252 3.3228-3.33252 1.8487 0 3.335 1.48291 3.339 3.33252.004 1.84962-1.4862 3.33656-3.3349 3.33656zm-1.4863-2.95374h1.1036v1.10816c0 .22163.1571.37879.3746.37879.2255 0 .3867-.15716.3867-.37879v-1.10816h1.1076c.2215 0 .3826-.15715.3826-.37879 0-.22163-.1571-.38281-.3826-.38281h-1.1076v-1.10816c0-.22566-.1612-.38282-.3867-.38282-.2175 0-.3746.15716-.3746.38282v1.10816h-1.1036c-.2296 0-.3866.16118-.3866.38281 0 .22164.1611.37879.3866.37879z" />
    </g>
</svg>